HIERARCHY
ROOT mixamorig:Hips
{
	OFFSET 0.000000 201.639420 0.000000
	CHANNELS 6 Xposition Yposition Zposition Xrotation Yrotation Zrotation
	JOINT mixamorig:Spine
	{
		OFFSET 0.006200 19.524994 -2.481800
		CHANNELS 3 Xrotation Yrotation Zrotation
		JOINT mixamorig:Spine1
		{
			OFFSET -0.000900 22.835007 -2.825400
			CHANNELS 3 Xrotation Yrotation Zrotation
			JOINT mixamorig:Spine2
			{
				OFFSET -0.020600 26.552490 -3.193300
				CHANNELS 3 Xrotation Yrotation Zrotation
				JOINT mixamorig:Neck
				{
					OFFSET -0.060000 30.701813 1.352200
					CHANNELS 3 Xrotation Yrotation Zrotation
					JOINT mixamorig:Head
					{
						OFFSET -0.087200 22.547607 3.670900
						CHANNELS 3 Xrotation Yrotation Zrotation
						JOINT mixamorig:HeadTop_End
						{
							OFFSET -0.830600 40.355194 7.893500
							CHANNELS 3 Xrotation Yrotation Zrotation
							End Site
							{
								OFFSET 0.000000 30.592346 0.000000
							}
						}
						JOINT mixamorig:RightEye
						{
							OFFSET -6.302100 18.118591 16.197100
							CHANNELS 3 Xrotation Yrotation Zrotation
							End Site
							{
								OFFSET 0.000000 30.592346 0.000000
							}
						}
						JOINT mixamorig:LeftEye
						{
							OFFSET 6.741500 18.382690 16.401899
							CHANNELS 3 Xrotation Yrotation Zrotation
							End Site
							{
								OFFSET 0.000000 30.592346 0.000000
							}
						}
					}
				}
				JOINT mixamorig:LeftShoulder
				{
					OFFSET 11.924900 18.230499 1.425400
					CHANNELS 3 Xrotation Yrotation Zrotation
					JOINT mixamorig:LeftArm
					{
						OFFSET 25.435989 -0.697632 -5.229300
						CHANNELS 3 Xrotation Yrotation Zrotation
						JOINT mixamorig:LeftForeArm
						{
							OFFSET 54.684776 0.000000 0.000000
							CHANNELS 3 Xrotation Yrotation Zrotation
							JOINT mixamorig:LeftHand
							{
								OFFSET 55.098175 0.000000 0.000000
								CHANNELS 3 Xrotation Yrotation Zrotation
								JOINT mixamorig:LeftHandMiddle1
								{
									OFFSET 23.369751 0.000000 0.000000
									CHANNELS 3 Xrotation Yrotation Zrotation
									JOINT mixamorig:LeftHandMiddle2
									{
										OFFSET 6.378677 0.000000 0.000000
										CHANNELS 3 Xrotation Yrotation Zrotation
										JOINT mixamorig:LeftHandMiddle3
										{
											OFFSET 6.148331 0.000000 0.000000
											CHANNELS 3 Xrotation Yrotation Zrotation
											JOINT mixamorig:LeftHandMiddle4
											{
												OFFSET 6.582504 0.000000 0.000000
												CHANNELS 3 Xrotation Yrotation Zrotation
												End Site
												{
													OFFSET -1.168900 6.395691 1.028606
												}
											}
										}
									}
								}
								JOINT mixamorig:LeftHandThumb1
								{
									OFFSET 7.235672 -3.848206 5.434273
									CHANNELS 3 Xrotation Yrotation Zrotation
									JOINT mixamorig:LeftHandThumb2
									{
										OFFSET 6.568451 -3.792297 3.792300
										CHANNELS 3 Xrotation Yrotation Zrotation
										JOINT mixamorig:LeftHandThumb3
										{
											OFFSET 6.063080 -3.500519 3.500518
											CHANNELS 3 Xrotation Yrotation Zrotation
											JOINT mixamorig:LeftHandThumb4
											{
												OFFSET 4.793182 -2.767334 2.767349
												CHANNELS 3 Xrotation Yrotation Zrotation
												End Site
												{
													OFFSET 0.101639 6.054260 1.275483
												}
											}
										}
									}
								}
								JOINT mixamorig:LeftHandIndex1
								{
									OFFSET 23.101074 -0.309540 4.992809
									CHANNELS 3 Xrotation Yrotation Zrotation
									JOINT mixamorig:LeftHandIndex2
									{
										OFFSET 6.226883 0.000000 0.000000
										CHANNELS 3 Xrotation Yrotation Zrotation
										JOINT mixamorig:LeftHandIndex3
										{
											OFFSET 6.094330 0.000000 0.000000
											CHANNELS 3 Xrotation Yrotation Zrotation
											JOINT mixamorig:LeftHandIndex4
											{
												OFFSET 5.482605 0.000000 0.000000
												CHANNELS 3 Xrotation Yrotation Zrotation
												End Site
												{
													OFFSET -1.427902 5.233032 0.797164
												}
											}
										}
									}
								}
								JOINT mixamorig:LeftHandRing1
								{
									OFFSET 22.299240 0.021149 -3.964172
									CHANNELS 3 Xrotation Yrotation Zrotation
									JOINT mixamorig:LeftHandRing2
									{
										OFFSET 6.321869 0.000000 0.000000
										CHANNELS 3 Xrotation Yrotation Zrotation
										JOINT mixamorig:LeftHandRing3
										{
											OFFSET 5.899796 0.000000 0.000000
											CHANNELS 3 Xrotation Yrotation Zrotation
											JOINT mixamorig:LeftHandRing4
											{
												OFFSET 6.517899 0.000000 0.000000
												CHANNELS 3 Xrotation Yrotation Zrotation
												End Site
												{
													OFFSET -1.637299 6.232208 0.980890
												}
											}
										}
									}
								}
								JOINT mixamorig:LeftHandPinky1
								{
									OFFSET 20.463791 -0.302338 -8.562233
									CHANNELS 3 Xrotation Yrotation Zrotation
									JOINT mixamorig:LeftHandPinky2
									{
										OFFSET 6.908646 0.000000 0.000000
										CHANNELS 3 Xrotation Yrotation Zrotation
										JOINT mixamorig:LeftHandPinky3
										{
											OFFSET 4.622849 0.000000 0.000000
											CHANNELS 3 Xrotation Yrotation Zrotation
											JOINT mixamorig:LeftHandPinky4
											{
												OFFSET 5.216080 0.000000 0.000000
												CHANNELS 3 Xrotation Yrotation Zrotation
												End Site
												{
													OFFSET -0.606308 5.116241 0.814926
												}
											}
										}
									}
								}
							}
						}
					}
				}
				JOINT mixamorig:RightShoulder
				{
					OFFSET -12.001300 18.284088 1.348900
					CHANNELS 3 Xrotation Yrotation Zrotation
					JOINT mixamorig:RightArm
					{
						OFFSET -25.308500 -0.751312 -5.164599
						CHANNELS 3 Xrotation Yrotation Zrotation
						JOINT mixamorig:RightForeArm
						{
							OFFSET -54.684429 0.000000 0.000000
							CHANNELS 3 Xrotation Yrotation Zrotation
							JOINT mixamorig:RightHand
							{
								OFFSET -55.150291 0.000000 0.000000
								CHANNELS 3 Xrotation Yrotation Zrotation
								JOINT mixamorig:RightHandMiddle1
								{
									OFFSET -23.317566 0.000000 0.000000
									CHANNELS 3 Xrotation Yrotation Zrotation
									JOINT mixamorig:RightHandMiddle2
									{
										OFFSET -6.378403 0.000000 0.000000
										CHANNELS 3 Xrotation Yrotation Zrotation
										JOINT mixamorig:RightHandMiddle3
										{
											OFFSET -6.148193 0.000000 0.000000
											CHANNELS 3 Xrotation Yrotation Zrotation
											JOINT mixamorig:RightHandMiddle4
											{
												OFFSET -6.583389 0.000000 0.000000
												CHANNELS 3 Xrotation Yrotation Zrotation
												End Site
												{
													OFFSET 1.171692 6.395905 1.029786
												}
											}
										}
									}
								}
								JOINT mixamorig:RightHandThumb1
								{
									OFFSET -7.190521 -3.860474 5.435846
									CHANNELS 3 Xrotation Yrotation Zrotation
									JOINT mixamorig:RightHandThumb2
									{
										OFFSET -6.567429 -3.791718 3.791708
										CHANNELS 3 Xrotation Yrotation Zrotation
										JOINT mixamorig:RightHandThumb3
										{
											OFFSET -6.062469 -3.500153 3.500166
											CHANNELS 3 Xrotation Yrotation Zrotation
											JOINT mixamorig:RightHandThumb4
											{
												OFFSET -4.792618 -2.767029 2.767022
												CHANNELS 3 Xrotation Yrotation Zrotation
												End Site
												{
													OFFSET -0.100327 6.053253 1.276754
												}
											}
										}
									}
								}
								JOINT mixamorig:RightHandIndex1
								{
									OFFSET -23.048981 -0.310791 4.992554
									CHANNELS 3 Xrotation Yrotation Zrotation
									JOINT mixamorig:RightHandIndex2
									{
										OFFSET -6.227539 0.000000 0.000000
										CHANNELS 3 Xrotation Yrotation Zrotation
										JOINT mixamorig:RightHandIndex3
										{
											OFFSET -6.095047 0.000000 0.000000
											CHANNELS 3 Xrotation Yrotation Zrotation
											JOINT mixamorig:RightHandIndex4
											{
												OFFSET -5.484772 0.000000 0.000000
												CHANNELS 3 Xrotation Yrotation Zrotation
												End Site
												{
													OFFSET 1.420593 5.237305 0.797056
												}
											}
										}
									}
								}
								JOINT mixamorig:RightHandRing1
								{
									OFFSET -22.246323 0.020569 -3.963762
									CHANNELS 3 Xrotation Yrotation Zrotation
									JOINT mixamorig:RightHandRing2
									{
										OFFSET -6.322128 0.000000 0.000000
										CHANNELS 3 Xrotation Yrotation Zrotation
										JOINT mixamorig:RightHandRing3
										{
											OFFSET -5.900024 0.000000 0.000000
											CHANNELS 3 Xrotation Yrotation Zrotation
											JOINT mixamorig:RightHandRing4
											{
												OFFSET -6.518356 0.000000 0.000000
												CHANNELS 3 Xrotation Yrotation Zrotation
												End Site
												{
													OFFSET 1.636398 6.232697 0.982186
												}
											}
										}
									}
								}
								JOINT mixamorig:RightHandPinky1
								{
									OFFSET -20.411011 -0.303314 -8.561701
									CHANNELS 3 Xrotation Yrotation Zrotation
									JOINT mixamorig:RightHandPinky2
									{
										OFFSET -6.907349 0.000000 0.000000
										CHANNELS 3 Xrotation Yrotation Zrotation
										JOINT mixamorig:RightHandPinky3
										{
											OFFSET -4.623840 0.000000 0.000000
											CHANNELS 3 Xrotation Yrotation Zrotation
											JOINT mixamorig:RightHandPinky4
											{
												OFFSET -5.218353 0.000000 0.000000
												CHANNELS 3 Xrotation Yrotation Zrotation
												End Site
												{
													OFFSET 0.602097 5.118835 0.816273
												}
											}
										}
									}
								}
							}
						}
					}
				}
			}
		}
	}
	JOINT mixamorig:LeftUpLeg
	{
		OFFSET 18.168400 -13.561905 -0.039000
		CHANNELS 3 Xrotation Yrotation Zrotation
		JOINT mixamorig:LeftLeg
		{
			OFFSET 0.577358 -80.825211 -3.695000
			CHANNELS 3 Xrotation Yrotation Zrotation
			JOINT mixamorig:LeftFoot
			{
				OFFSET -0.577356 -83.370262 -6.520700
				CHANNELS 3 Xrotation Yrotation Zrotation
				JOINT mixamorig:LeftToeBase
				{
					OFFSET 0.750401 -20.798306 25.135401
					CHANNELS 3 Xrotation Yrotation Zrotation
					JOINT mixamorig:LeftToe_End
					{
						OFFSET -0.000500 0.001200 19.917799
						CHANNELS 3 Xrotation Yrotation Zrotation
						End Site
						{
							OFFSET 0.000000 19.917805 0.000000
						}
					}
				}
			}
		}
	}
	JOINT mixamorig:RightUpLeg
	{
		OFFSET -18.162500 -13.585098 -0.041000
		CHANNELS 3 Xrotation Yrotation Zrotation
		JOINT mixamorig:RightLeg
		{
			OFFSET -0.595024 -80.945297 -3.631900
			CHANNELS 3 Xrotation Yrotation Zrotation
			JOINT mixamorig:RightFoot
			{
				OFFSET 0.595024 -83.218193 -6.561200
				CHANNELS 3 Xrotation Yrotation Zrotation
				JOINT mixamorig:RightToeBase
				{
					OFFSET -0.753601 -20.807106 25.115000
					CHANNELS 3 Xrotation Yrotation Zrotation
					JOINT mixamorig:RightToe_End
					{
						OFFSET 0.000299 0.001700 19.918200
						CHANNELS 3 Xrotation Yrotation Zrotation
						End Site
						{
							OFFSET 0.000000 19.918203 0.000000
						}
					}
				}
			}
		}
	}
}
MOTION
Frames: 4
Frame Time: 0.033333
549.077393 32.363937 330.229858 -6.692028 -24.820703 -102.533324 25.033931 -3.750800 13.620026 6.569302 -1.406721 2.114914 6.530071 -1.407738 2.179934 3.871406 2.921904 1.177040 8.071888 29.503091 17.884729 0.000003 -0.000002 -0.000002 0.000003 -0.000002 -0.000002 0.000003 -0.000002 -0.000002 1.770961 -28.152447 -3.931785 -49.941889 -11.506348 -58.953282 0.001021 -89.534047 0.001018 14.447266 -25.681129 34.853977 -2.200402 -5.930047 -14.652120 0.768479 2.902480 -29.653775 0.037768 0.664826 -6.501913 -0.000000 0.000001 0.000002 -0.625003 -15.111595 -9.671440 3.398299 2.508296 -2.901508 -4.315542 6.534731 4.831556 0.000001 -0.000002 0.000001 5.973124 -22.944077 -19.802909 0.489972 2.347286 -23.578259 0.169114 1.398856 -13.785729 0.000003 0.000000 -0.000001 0.183446 3.621734 -16.811708 0.357041 2.015718 -20.086997 0.462422 2.283151 -22.896169 -0.000001 -0.000002 -0.000003 -7.310760 25.579463 -18.995400 0.156610 1.346914 -13.264098 0.052530 0.783674 -7.670645 -0.000001 0.000000 0.000001 -0.621229 34.275706 7.911369 -48.397672 10.043551 31.564145 -0.000313 85.055752 0.000301 -16.059341 31.522938 -9.266824 0.248753 -3.768144 10.873259 0.518032 -2.136544 27.255592 0.283969 -1.602888 20.090892 0.000002 -0.000002 0.000001 -13.263656 13.192004 18.542355 7.356348 -18.819717 0.847833 -5.504767 -5.510954 -14.718521 0.000002 0.000000 -0.000000 -1.772232 9.093442 24.624579 0.344593 -1.759710 22.156801 0.040124 -0.610671 7.518075 0.000005 0.000001 0.000005 3.046401 -11.095256 20.344832 0.219733 -1.415059 17.652209 0.259163 -1.533398 19.184692 -0.000000 -0.000000 0.000002 -7.828420 -22.671196 19.379023 0.192811 -1.327504 16.527210 0.064321 -0.772187 9.523534 -0.000001 0.000001 -0.000000 -51.324159 9.409121 13.429289 15.328756 -9.016219 -8.983985 26.260004 -11.033093 -6.681539 4.934368 -0.000002 0.000008 0.000001 -0.000000 0.000001 -80.308695 25.375623 -14.126614 92.246056 -8.027212 -5.788547 11.584546 -1.406900 10.205569 0.337406 0.000005 0.000019 -0.000001 0.000002 -0.000001 
550.293396 31.981003 330.952515 -6.457372 -22.600510 -103.699518 24.148667 -3.379314 15.413953 6.632550 -1.353085 2.180339 6.589712 -1.360859 2.236622 4.143387 2.608363 1.455599 11.565751 27.910477 17.513536 -0.000000 0.000000 0.000000 -0.000000 0.000000 0.000000 -0.000000 0.000000 0.000000 2.473552 -27.086920 0.163051 -52.868683 -16.268341 -60.202394 -0.000173 -80.538592 -0.000173 10.935666 -33.094309 41.463708 -2.302918 -6.350727 -14.663762 0.781716 2.925559 -29.914043 0.038415 0.670646 -6.558939 0.000002 0.000002 0.000001 -0.531955 -15.578634 -9.675491 3.400195 2.508018 -2.902352 -4.290187 6.591921 4.755352 0.000000 -0.000003 -0.000001 5.747267 -23.445552 -19.861898 0.498387 2.366448 -23.782908 0.172059 1.410806 -13.905982 0.000001 -0.000000 0.000002 0.082982 3.288766 -16.813049 0.363252 2.032632 -20.262999 0.470458 2.302079 -23.097050 -0.000001 -0.000000 0.000002 -7.368488 25.422777 -19.039844 0.156609 1.346922 -13.264110 0.052562 0.783900 -7.672953 0.000000 0.000000 -0.000002 -0.537147 34.298922 7.744331 -51.070199 9.872594 29.434523 -0.000113 83.604220 0.000135 -13.332720 30.497747 -8.174134 0.248918 -3.768767 10.876176 0.518027 -2.136520 27.255605 0.283967 -1.602894 20.090901 0.000000 0.000000 -0.000000 -13.265295 13.192335 18.543564 7.360537 -18.854076 0.845833 -5.504779 -5.510953 -14.718525 0.000000 -0.000001 0.000000 -1.831781 9.188557 24.819801 0.344592 -1.759745 22.156816 0.040144 -0.610836 7.520356 -0.000001 0.000001 0.000001 3.047442 -11.098006 20.344791 0.219733 -1.415079 17.652200 0.259162 -1.533411 19.184697 0.000000 0.000001 0.000004 -7.829185 -22.671430 19.378720 0.192818 -1.327507 16.527215 0.064365 -0.772449 9.526815 0.000001 0.000001 0.000004 -53.878554 5.486621 16.635742 24.863217 -7.573578 -8.982798 21.155471 -11.898920 -5.443549 4.858343 -0.000010 -0.000033 0.000001 0.000000 -0.000000 -81.747078 27.360286 -17.472901 98.412016 -7.864848 -4.670506 12.000104 -6.547547 9.312881 -1.080713 0.000000 -0.000011 -0.000000 -0.000002 -0.000001 
550.331177 32.054565 332.120544 -6.439542 -20.267978 -105.170850 23.120861 -3.020837 16.730736 6.487399 -1.379225 2.525402 6.428024 -1.440059 2.587417 4.593533 2.505809 1.505011 13.702566 26.070612 18.704126 0.000001 -0.000002 -0.000001 0.000001 -0.000002 -0.000001 0.000001 -0.000002 -0.000001 1.262782 -24.388437 -0.406979 -54.261318 -22.069367 -63.804444 0.000037 -71.646833 0.000022 8.674861 -37.323289 47.084199 -2.405675 -6.775589 -14.673210 0.794831 2.948241 -30.170250 0.039087 0.676347 -6.615054 -0.000000 -0.000001 0.000002 -0.439264 -16.050316 -9.674129 3.402367 2.507686 -2.903243 -4.265144 6.648273 4.680315 -0.000001 0.000001 -0.000000 5.520746 -23.948245 -19.918864 0.506735 2.385282 -23.984143 0.174988 1.422560 -14.024309 -0.000002 -0.000001 -0.000001 -0.018805 2.950512 -16.811327 0.369424 2.049237 -20.436242 0.478422 2.320694 -23.294804 -0.000003 -0.000000 -0.000002 -7.430898 25.258624 -19.080345 0.156618 1.346897 -13.264096 0.052601 0.784179 -7.675497 0.000000 0.000001 -0.000005 -0.446868 34.651308 7.558259 -51.047809 10.239436 26.888136 -0.000148 80.309890 0.000162 -14.409746 29.288493 -4.528637 0.249050 -3.769371 10.878751 0.518032 -2.136530 27.255588 0.283962 -1.602894 20.090906 -0.000001 -0.000000 -0.000002 -13.266632 13.192726 18.544752 7.364645 -18.888036 0.843867 -5.504772 -5.510955 -14.718515 -0.000001 -0.000001 -0.000001 -1.891051 9.281898 25.012086 0.344588 -1.759727 22.156787 0.040181 -0.611044 7.522851 0.000003 -0.000000 0.000000 3.048344 -11.100411 20.344763 0.219729 -1.415059 17.652202 0.259168 -1.533417 19.184693 -0.000004 -0.000000 0.000001 -7.829942 -22.671698 19.378437 0.192821 -1.327499 16.527219 0.064403 -0.772662 9.529244 -0.000002 0.000001 -0.000002 -56.214666 0.550863 18.429218 34.463772 -6.307242 -7.847606 16.477707 -12.492188 -5.924963 4.041468 -0.000005 -0.000018 -0.000004 -0.000002 -0.000001 -81.086496 29.027778 -19.391206 104.696206 -7.459656 -3.528690 11.588010 -7.893216 8.121912 -2.163547 -0.000009 -0.000004 -0.000003 0.000000 -0.000001 
551.414978 33.130722 333.291260 -6.738146 -18.398672 -106.915355 22.738893 -2.201263 16.702464 5.722418 -1.286430 2.910957 5.659867 -1.340028 2.981682 4.697449 2.385787 1.862051 14.325246 24.614743 22.118895 -0.000000 0.000000 -0.000001 -0.000000 0.000000 -0.000001 -0.000000 0.000000 -0.000001 0.545926 -24.658538 -0.667604 -53.589886 -24.309499 -64.213265 0.000031 -67.912025 0.000011 8.089097 -34.814424 47.518903 -2.508188 -7.203032 -14.680141 0.807759 2.970329 -30.420751 0.039739 0.681962 -6.669940 0.000002 0.000001 0.000001 -0.347351 -16.524797 -9.666988 3.404765 2.507294 -2.904163 -4.240579 6.703389 4.606922 0.000000 0.000002 0.000002 5.294846 -24.449960 -19.973068 0.514944 2.403634 -24.180700 0.177871 1.434049 -14.139959 0.000000 -0.000000 -0.000001 -0.121502 2.608027 -16.806237 0.375505 2.065494 -20.605641 0.486284 2.338827 -23.488116 -0.000001 -0.000001 -0.000002 -7.497337 25.087365 -19.118314 0.156612 1.346911 -13.264101 0.052636 0.784403 -7.677916 0.000000 0.000000 -0.000002 -0.800540 34.530776 8.704145 -48.991202 10.934592 25.486122 -0.000086 75.114602 0.000096 -19.590798 31.558052 -3.097737 0.249160 -3.769874 10.880344 0.518030 -2.136522 27.255597 0.283969 -1.602906 20.090899 0.000003 0.000001 -0.000000 -13.267737 13.193100 18.545914 7.368574 -18.921267 0.841930 -5.504779 -5.510972 -14.718520 0.000000 -0.000002 0.000000 -1.949617 9.372963 25.200138 0.344594 -1.759732 22.156801 0.040191 -0.611241 7.525193 0.000004 -0.000001 0.000001 3.048907 -11.101932 20.344738 0.219747 -1.415065 17.652199 0.259159 -1.533431 19.184688 -0.000002 0.000001 -0.000001 -7.830700 -22.671922 19.378145 0.192805 -1.327533 16.527224 0.064422 -0.772770 9.530772 -0.000001 -0.000001 -0.000003 -56.912917 -4.099819 20.158690 39.990829 -4.662745 -7.085505 14.296894 -13.520447 -7.227703 2.759342 0.000002 0.000015 -0.000001 -0.000001 0.000000 -78.303085 28.073850 -18.745895 109.528094 -7.879734 -2.562813 10.698375 -10.782202 6.083700 -0.805773 0.000009 0.000020 -0.000000 0.000001 0.000000 
